<?xml version="1.0" encoding="UTF-8" standalone="no"?>
<!-- Created with Inkscape (http://www.inkscape.org/) -->

<svg
   width="64pt"
   height="64pt"
   viewBox="0 0 22.577778 22.577778"
   version="1.1"
   id="svg831"
   inkscape:version="1.1.1 (3bf5ae0d25, 2021-09-20)"
   sodipodi:docname="Export - Unblash - 64px.svg"
   inkscape:export-filename="C:\Users\User\Desktop\CARLOS PROJECT\3. MARET 1\EXPORT\FILEDLINE\15 - Garbage.png"
   inkscape:export-xdpi="576"
   inkscape:export-ydpi="576"
   xmlns:inkscape="http://www.inkscape.org/namespaces/inkscape"
   xmlns:sodipodi="http://sodipodi.sourceforge.net/DTD/sodipodi-0.dtd"
   xmlns="http://www.w3.org/2000/svg"
   xmlns:svg="http://www.w3.org/2000/svg"
   xmlns:rdf="http://www.w3.org/1999/02/22-rdf-syntax-ns#"
   xmlns:cc="http://creativecommons.org/ns#"
   xmlns:dc="http://purl.org/dc/elements/1.1/">
  <defs
     id="defs825">
    <pattern
       id="EMFhbasepattern"
       patternUnits="userSpaceOnUse"
       width="6"
       height="6"
       x="0"
       y="0" />
    <pattern
       id="EMFhbasepattern-9"
       patternUnits="userSpaceOnUse"
       width="6"
       height="6"
       x="0"
       y="0" />
    <pattern
       id="EMFhbasepattern-0"
       patternUnits="userSpaceOnUse"
       width="6"
       height="6"
       x="0"
       y="0" />
    <pattern
       id="EMFhbasepattern-7"
       patternUnits="userSpaceOnUse"
       width="6"
       height="6"
       x="0"
       y="0" />
    <pattern
       id="EMFhbasepattern-2"
       patternUnits="userSpaceOnUse"
       width="6"
       height="6"
       x="0"
       y="0" />
    <pattern
       id="EMFhbasepattern-98"
       patternUnits="userSpaceOnUse"
       width="6"
       height="6"
       x="0"
       y="0" />
    <pattern
       id="EMFhbasepattern-6"
       patternUnits="userSpaceOnUse"
       width="6"
       height="6"
       x="0"
       y="0" />
    <pattern
       id="EMFhbasepattern-01"
       patternUnits="userSpaceOnUse"
       width="6"
       height="6"
       x="0"
       y="0" />
    <pattern
       id="EMFhbasepattern-07"
       patternUnits="userSpaceOnUse"
       width="6"
       height="6"
       x="0"
       y="0" />
    <pattern
       id="EMFhbasepattern-8"
       patternUnits="userSpaceOnUse"
       width="6"
       height="6"
       x="0"
       y="0" />
    <pattern
       id="EMFhbasepattern-4"
       patternUnits="userSpaceOnUse"
       width="6"
       height="6"
       x="0"
       y="0" />
    <pattern
       id="EMFhbasepattern-40"
       patternUnits="userSpaceOnUse"
       width="6"
       height="6"
       x="0"
       y="0" />
    <pattern
       id="EMFhbasepattern-08"
       patternUnits="userSpaceOnUse"
       width="6"
       height="6"
       x="0"
       y="0" />
    <pattern
       id="EMFhbasepattern-04"
       patternUnits="userSpaceOnUse"
       width="6"
       height="6"
       x="0"
       y="0" />
    <pattern
       id="EMFhbasepattern-014"
       patternUnits="userSpaceOnUse"
       width="6"
       height="6"
       x="0"
       y="0" />
    <pattern
       id="EMFhbasepattern-27"
       patternUnits="userSpaceOnUse"
       width="6"
       height="6"
       x="0"
       y="0" />
    <pattern
       id="EMFhbasepattern-09"
       patternUnits="userSpaceOnUse"
       width="6"
       height="6"
       x="0"
       y="0" />
    <pattern
       id="EMFhbasepattern-5"
       patternUnits="userSpaceOnUse"
       width="6"
       height="6"
       x="0"
       y="0" />
    <pattern
       id="EMFhbasepattern-018"
       patternUnits="userSpaceOnUse"
       width="6"
       height="6"
       x="0"
       y="0" />
  </defs>
  <sodipodi:namedview
     id="base"
     pagecolor="#ffffff"
     bordercolor="#666666"
     borderopacity="1.0"
     inkscape:pageopacity="0.0"
     inkscape:pageshadow="2"
     inkscape:zoom="9.1757812"
     inkscape:cx="42.612175"
     inkscape:cy="43.538527"
     inkscape:document-units="pt"
     inkscape:current-layer="layer1"
     showgrid="false"
     units="pt"
     inkscape:window-width="1920"
     inkscape:window-height="1001"
     inkscape:window-x="-9"
     inkscape:window-y="41"
     inkscape:window-maximized="1"
     inkscape:pagecheckerboard="true"
     inkscape:showpageshadow="false"
     inkscape:object-paths="true"
     inkscape:snap-intersection-paths="true"
     inkscape:snap-smooth-nodes="true"
     inkscape:snap-midpoints="true"
     showguides="true"
     inkscape:snap-bbox="true"
     inkscape:bbox-nodes="true"
     inkscape:snap-nodes="false"
     inkscape:snap-global="true">
    <inkscape:grid
       type="xygrid"
       id="grid1378" />
    <sodipodi:guide
       position="0.97013831,21.607643"
       orientation="78.000048,0"
       id="guide1380"
       inkscape:locked="false" />
    <sodipodi:guide
       position="0.97013831,0.97013129"
       orientation="0,78.000005"
       id="guide1382"
       inkscape:locked="false" />
    <sodipodi:guide
       position="21.607639,0.97013129"
       orientation="-78.000048,0"
       id="guide1384"
       inkscape:locked="false" />
    <sodipodi:guide
       position="21.607639,21.607643"
       orientation="0,-78.000005"
       id="guide1386"
       inkscape:locked="false" />
  </sodipodi:namedview>
  <metadata
     id="metadata828">
    <rdf:RDF>
      <cc:Work
         rdf:about="">
        <dc:format>image/svg+xml</dc:format>
        <dc:type
           rdf:resource="http://purl.org/dc/dcmitype/StillImage" />
      </cc:Work>
    </rdf:RDF>
  </metadata>
  <g
     inkscape:label="Icon"
     inkscape:groupmode="layer"
     id="layer1"
     transform="translate(0,-274.42223)">
    <g
       id="g20378"
       style="display:inline;stroke-width:0.794788"
       transform="matrix(1.2581969,0,0,1.2581969,-76.12147,-117.26828)">
      <g
         id="g17269"
         style="stroke-width:0.794788">
        <path
           style="color:#000000;fill:#3a4d5c;stroke-width:0.794788;stroke-linecap:round;stroke-linejoin:round;-inkscape-stroke:none"
           d="m 68.572266,312.08203 c -0.63949,0 -1.16211,0.5247 -1.16211,1.16406 v 0.82813 a 0.26460996,0.26460996 0 0 0 0.263672,0.26367 h 3.597656 a 0.26460996,0.26460996 0 0 0 0.263672,-0.26367 v -0.82813 c 0,-0.63936 -0.524573,-1.16406 -1.164062,-1.16406 z"
           id="path545412" />
        <path
           style="color:#000000;fill:#3a4d5c;stroke-width:0.794788;stroke-linecap:round;stroke-linejoin:round;-inkscape-stroke:none"
           d="m 62.878906,313.2793 c -0.308436,0 -0.564453,0.25595 -0.564453,0.56445 v 0.30078 c 0,0.47394 0.389314,0.86328 0.863281,0.86328 h 12.589844 c 0.473966,0 0.863281,-0.38934 0.863281,-0.86328 v -0.30078 c 0,-0.3085 -0.256016,-0.56445 -0.564453,-0.56445 z"
           id="path545604" />
        <path
           style="color:#000000;fill:#5f8ea2;stroke-width:0.794788;stroke-linecap:round;stroke-linejoin:round;-inkscape-stroke:none"
           d="m 74.900391,315.67187 -10.855469,0.002 a 0.26460996,0.26460996 0 0 0 -0.263672,0.28906 l 1.007812,11.53516 a 0.26460996,0.26460996 0 0 0 0.002,0.002 c 0.05429,0.55617 0.525077,0.98437 1.083984,0.98437 h 7.193359 c 0.558748,0 1.036947,-0.42642 1.085938,-0.98632 l 1.009765,-11.53711 a 0.26460996,0.26460996 0 0 0 -0.263671,-0.28907 z"
           id="path545796" />
        <path
           style="color:#000000;fill:#3a4d5c;stroke-width:0.794788;stroke-linecap:round;stroke-linejoin:round;-inkscape-stroke:none"
           d="m 65.863165,318.07209 c -0.311311,0 -0.562832,0.27213 -0.538985,0.5824 l 0.527616,7.78867 a 0.26460996,0.26460996 0 0 0 0,0.002 c 0.03782,0.47241 0.438129,0.84181 0.91209,0.84181 h 0.298688 c 0.308428,0 0.564304,-0.2558 0.564309,-0.5643 v -8.08581 c -5e-6,-0.30851 -0.255858,-0.56483 -0.564309,-0.56483 z"
           id="path546216" />
        <path
           style="color:#000000;fill:#3a4d5c;stroke-width:3.00393;stroke-linecap:round;stroke-linejoin:round;-inkscape-stroke:none"
           d="m 271.67578,143.64258 c -1.16579,0 -2.12694,0.96874 -2.12695,2.13476 v 30.56055 c 10e-6,1.16598 0.96124,2.13281 2.12695,2.13281 h 1.13672 c 1.79134,0 3.29651,-1.39619 3.43945,-3.18164 a 1.0001006,1.0001006 0 0 0 0,-0.002 1.0001006,1.0001006 0 0 0 0,-0.002 1.0001006,1.0001006 0 0 0 0,-0.002 1.0001006,1.0001006 0 0 0 0,-0.002 l 2.00196,-29.43164 c 0.0941,-1.17532 -0.86619,-2.20703 -2.04493,-2.20703 z"
           transform="matrix(0.26458334,0,0,0.26458334,0,280.06666)"
           id="path545992" />
        <path
           style="color:#000000;fill:#3a4d5c;stroke-width:3.00393;stroke-linecap:round;stroke-linejoin:round;-inkscape-stroke:none"
           d="m 261.4375,143.64258 c -1.7914,0 -3.26367,1.47236 -3.26367,3.26367 v 28.29492 c 0,1.79127 1.47229,3.26953 3.26367,3.26953 h 2.33984 c 1.79138,0 3.26172,-1.47826 3.26172,-3.26953 v -28.29492 c 0,-1.79131 -1.47032,-3.26367 -3.26172,-3.26367 z"
           transform="matrix(0.26458334,0,0,0.26458334,0,280.06666)"
           id="path546104" />
        <path
           id="path7250"
           style="color:#000000;fill:#527b8c;fill-opacity:1;stroke-width:0.794788;stroke-linecap:round;stroke-linejoin:round;-inkscape-stroke:none"
           d="m 74.613537,315.67172 -0.988571,11.2975 c -0.04899,0.55991 -0.526973,0.98599 -1.085723,0.98599 h -7.19336 c -0.163038,0 -0.318479,-0.0369 -0.458369,-0.10232 0.174524,0.37442 0.55453,0.63149 0.987536,0.63149 h 7.19336 c 0.558749,0 1.036732,-0.42609 1.085723,-0.98599 l 1.009756,-11.53728 a 0.26460996,0.26460996 0 0 0 -0.263549,-0.28939 z" />
      </g>
      <path
         id="rect9208"
         style="color:#000000;display:inline;fill:#000000;stroke-width:0.794788;stroke-linecap:round;stroke-linejoin:round;-inkscape-stroke:none"
         d="m 68.542587,312.08228 c -0.749014,0 -1.132229,0.57108 -1.132229,1.19682 H 62.87885 c -0.308436,0 -0.564306,0.25633 -0.564306,0.56483 v 0.30075 c 0,0.47394 0.38903,0.863 0.862997,0.863 h 12.589928 c 0.473967,0 0.863515,-0.38906 0.863515,-0.863 v -0.30075 c 0,-0.3085 -0.256386,-0.56483 -0.564824,-0.56483 h -4.53099 c 0,-0.59208 -0.378407,-1.19682 -1.16427,-1.19682 z m 0.02946,0.52917 H 70.3709 c 0.432684,0 0.635103,0.34002 0.635103,0.66765 h -3.066478 c 0,-0.37604 0.302847,-0.66765 0.632518,-0.66765 z m 7.529775,1.23248 v 0.30075 c 0,0.18776 -0.14618,0.33383 -0.334349,0.33383 H 63.177541 c -0.188169,0 -0.33383,-0.14606 -0.33383,-0.33383 v -0.30075 z m -12.057148,1.82991 c -0.155969,-6e-5 -0.278156,0.13411 -0.263549,0.28939 l 1.009807,11.53681 c 0.05429,0.55617 0.525264,0.98444 1.084169,0.98444 h 7.19336 c 0.55875,0 1.036733,-0.42609 1.085723,-0.98599 l 1.009756,-11.53728 c 0.0146,-0.15528 -0.10758,-0.28945 -0.263549,-0.28939 z m 10.566797,0.52757 -0.984435,11.24996 c -0.02508,0.28651 -0.267152,0.50384 -0.558623,0.50384 H 65.87505 c -0.291314,0 -0.53036,-0.21642 -0.558623,-0.50591 l -0.982369,-11.24634 z m -9.035105,0.67334 c -0.146328,-5.3e-4 -0.265332,0.11774 -0.265618,0.26407 -5.29e-4,0.14693 0.118684,0.26619 0.265618,0.26561 h 7.792805 c 0.146126,-5.3e-4 0.264123,-0.11949 0.263551,-0.26561 -2.65e-4,-0.14553 -0.118031,-0.2635 -0.263551,-0.26407 z m 0.275434,9.57053 c 0.03782,0.4724 0.438128,0.8418 0.91209,0.8418 h 0.298688 c 0.308427,0 0.564303,-0.2558 0.564309,-0.5643 v -8.08581 c -6e-6,-0.30851 -0.255858,-0.56483 -0.564309,-0.56483 l -1.199409,-5e-5 c -0.311312,0 -0.562833,0.27213 -0.538986,0.5824 z m 3.320211,-8.37319 c -0.473975,0 -0.863513,0.38957 -0.863513,0.86352 v 7.48636 c 0,0.47394 0.389544,0.86506 0.863513,0.86506 h 0.619083 c 0.473969,0 0.862996,-0.39112 0.862996,-0.86506 v -7.48636 c 0,-0.47395 -0.389022,-0.86352 -0.862996,-0.86352 z m 2.708878,0 c -0.308448,0 -0.562753,0.25632 -0.562755,0.56483 v 8.08581 c 2e-6,0.3085 0.254328,0.5643 0.562755,0.5643 h 0.300757 c 0.473959,0 0.872202,-0.3694 0.910022,-0.84181 v -5.2e-4 -5.3e-4 -5.3e-4 -5.3e-4 l 0.529685,-7.78712 c 0.0249,-0.31097 -0.22918,-0.58395 -0.541055,-0.58395 z m -4.783169,0.56483 v 8.08581 c 0,0.0223 -0.01249,0.0351 -0.03514,0.0351 h -0.298688 c -0.203105,0 -0.366747,-0.15142 -0.382924,-0.35347 l -0.529166,-7.76748 z m 2.074291,-0.0351 h 0.619083 c 0.188171,0 0.33383,0.14605 0.33383,0.33383 v 7.48636 c 0,0.18777 -0.145653,0.3359 -0.33383,0.3359 h -0.619083 c -0.188177,0 -0.334346,-0.14813 -0.334346,-0.3359 v -7.48636 c 0,-0.18778 0.146174,-0.33383 0.334346,-0.33383 z m 3.919657,0.0351 -0.527098,7.76748 c -0.01619,0.20205 -0.179821,0.35347 -0.382924,0.35347 h -0.300757 c -0.02265,0 -0.03514,-0.0128 -0.03514,-0.0351 v -8.08581 z"
         sodipodi:nodetypes="ccsssssssscccccccccsssscccccsscccccssccccscccccscsccsssccsssssssssccssccccccsscssscccscsssssssccsssccc" />
    </g>
  </g>
</svg>
